<svg id="visual" viewBox="0 0 900 675" width="900" height="675" xmlns="http://www.w3.org/2000/svg" xmlns:xlink="http://www.w3.org/1999/xlink" version="1.1"><rect width="900" height="675" fill="#FFFFFF"></rect><g><g transform="translate(649 336)"><path d="M53.6 -29.1C62.9 -14.9 59.2 8.6 48.1 29.9C37.1 51.2 18.5 70.4 0.8 69.9C-16.8 69.4 -33.7 49.3 -48.6 25.8C-63.4 2.2 -76.4 -24.7 -68 -38.3C-59.6 -52 -29.8 -52.4 -3.8 -50.2C22.2 -48 44.3 -43.2 53.6 -29.1Z" stroke="#142846" fill="none" stroke-width="10"></path></g><g transform="translate(339 49)"><path d="M29 -12.7C37.8 -1.6 45.1 14.4 40.1 28.8C35 43.3 17.5 56.4 -1.2 57C-19.8 57.7 -39.7 46 -45.6 31.1C-51.5 16.1 -43.5 -2.2 -33.5 -13.9C-23.6 -25.7 -11.8 -30.9 -0.8 -30.4C10.1 -30 20.3 -23.7 29 -12.7Z" stroke="#142846" fill="none" stroke-width="10"></path></g><g transform="translate(845 474)"><path d="M57.5 -26.3C71.7 -8.6 78.5 20.3 67.6 38.6C56.8 56.9 28.4 64.6 5.3 61.5C-17.8 58.5 -35.7 44.7 -44.5 27.6C-53.4 10.4 -53.2 -10.1 -44.3 -24.7C-35.4 -39.4 -17.7 -48.1 2 -49.3C21.7 -50.4 43.3 -44 57.5 -26.3Z" stroke="#142846" fill="none" stroke-width="10"></path></g><g transform="translate(156 643)"><path d="M37.5 -27.2C44.1 -10.3 41.7 6.2 34 20.6C26.2 35 13.1 47.3 -4 49.6C-21.1 51.9 -42.1 44.2 -51.4 28.9C-60.7 13.6 -58.3 -9.3 -47.7 -28.5C-37.2 -47.6 -18.6 -63 -1.5 -62.1C15.5 -61.3 31 -44 37.5 -27.2Z" stroke="#142846" fill="none" stroke-width="10"></path></g><g transform="translate(827 21)"><path d="M43 -26.2C51 -11.1 49.3 8.2 40.5 24.5C31.7 40.8 15.9 54.2 -2.9 55.9C-21.7 57.6 -43.4 47.6 -49.9 32.5C-56.4 17.5 -47.8 -2.5 -36.9 -19.3C-26.1 -36.1 -13 -49.6 2.3 -50.9C17.5 -52.2 35.1 -41.3 43 -26.2Z" stroke="#142846" fill="none" stroke-width="10"></path></g></g></svg>