<svg id="visual" viewBox="0 0 900 675" width="900" height="675" xmlns="http://www.w3.org/2000/svg" xmlns:xlink="http://www.w3.org/1999/xlink" version="1.1"><rect x="0" y="0" width="900" height="675" fill="#FFFFFF"></rect><defs><linearGradient id="grad1_0" x1="25%" y1="100%" x2="100%" y2="0%"><stop offset="23.333333333333336%" stop-color="#2a3576" stop-opacity="1"></stop><stop offset="76.66666666666666%" stop-color="#2a3576" stop-opacity="1"></stop></linearGradient></defs><defs><linearGradient id="grad1_1" x1="25%" y1="100%" x2="100%" y2="0%"><stop offset="23.333333333333336%" stop-color="#2a3576" stop-opacity="1"></stop><stop offset="76.66666666666666%" stop-color="#ffffff" stop-opacity="1"></stop></linearGradient></defs><defs><linearGradient id="grad2_0" x1="0%" y1="100%" x2="75%" y2="0%"><stop offset="23.333333333333336%" stop-color="#2a3576" stop-opacity="1"></stop><stop offset="76.66666666666666%" stop-color="#2a3576" stop-opacity="1"></stop></linearGradient></defs><defs><linearGradient id="grad2_1" x1="0%" y1="100%" x2="75%" y2="0%"><stop offset="23.333333333333336%" stop-color="#ffffff" stop-opacity="1"></stop><stop offset="76.66666666666666%" stop-color="#2a3576" stop-opacity="1"></stop></linearGradient></defs><g transform="translate(900, 675)"><path d="M-196.9 0C-193.8 -26.1 -190.7 -52.3 -176.5 -73.1C-162.2 -93.9 -136.9 -109.3 -113.1 -113.1C-89.4 -116.9 -67.2 -109.1 -48.6 -117.3C-30 -125.5 -15 -149.8 0 -174L0 0Z" fill="#9593b9"></path><path d="M-98.4 0C-96.9 -13.1 -95.3 -26.1 -88.2 -36.5C-81.1 -46.9 -68.4 -54.7 -56.6 -56.6C-44.7 -58.5 -33.6 -54.6 -24.3 -58.7C-15 -62.8 -7.5 -74.9 0 -87L0 0Z" fill="#2a3576"></path></g><g transform="translate(0, 0)"><path d="M127 0C140.5 21.3 154 42.6 150.6 62.4C147.2 82.1 127 100.3 107.5 107.5C87.9 114.6 69.1 110.7 51.3 123.8C33.5 136.9 16.7 166.9 0 196.9L0 0Z" fill="#9593b9"></path><path d="M63.5 0C70.2 10.7 77 21.3 75.3 31.2C73.6 41.1 63.5 50.2 53.7 53.7C44 57.3 34.5 55.4 25.6 61.9C16.7 68.4 8.4 83.4 0 98.4L0 0Z" fill="#2a3576"></path></g></svg>