<svg id="visual" viewBox="0 0 960 540" width="960" height="540" xmlns="http://www.w3.org/2000/svg" xmlns:xlink="http://www.w3.org/1999/xlink" version="1.1"><rect x="0" y="0" width="960" height="540" fill="#c1b4b4"></rect><path d="M0 180L107 132L213 155L320 191L427 200L533 148L640 170L747 150L853 199L960 180L960 541L853 541L747 541L640 541L533 541L427 541L320 541L213 541L107 541L0 541Z" fill="#5d5f72"></path><path d="M0 276L107 266L213 214L320 258L427 268L533 192L640 208L747 217L853 255L960 239L960 541L853 541L747 541L640 541L533 541L427 541L320 541L213 541L107 541L0 541Z" fill="#494b6f"></path><path d="M0 337L107 312L213 297L320 276L427 297L533 307L640 333L747 317L853 323L960 302L960 541L853 541L747 541L640 541L533 541L427 541L320 541L213 541L107 541L0 541Z" fill="#36376a"></path><path d="M0 390L107 399L213 359L320 371L427 409L533 378L640 345L747 372L853 349L960 366L960 541L853 541L747 541L640 541L533 541L427 541L320 541L213 541L107 541L0 541Z" fill="#242263"></path><path d="M0 470L107 450L213 454L320 472L427 466L533 450L640 425L747 429L853 432L960 440L960 541L853 541L747 541L640 541L533 541L427 541L320 541L213 541L107 541L0 541Z" fill="#0f0b5b"></path></svg>