<svg id="visual" viewBox="0 0 900 675" width="900" height="675" xmlns="http://www.w3.org/2000/svg" xmlns:xlink="http://www.w3.org/1999/xlink" version="1.1"><rect width="900" height="675" fill="#FFFFFF"></rect><g><g transform="translate(561 54)"><path d="M0 -36.8L19.9 -30.9L33.4 -15.3L36.4 5.2L27.8 24.1L10.4 35.3L-10.4 35.3L-27.8 24.1L-36.4 5.2L-33.4 -15.3L-19.9 -30.9Z" fill="none" stroke="#063171" stroke-width="2"></path></g><g transform="translate(816 335)"><path d="M0 -33L17.8 -27.8L30 -13.7L32.7 4.7L24.9 21.6L9.3 31.7L-9.3 31.7L-24.9 21.6L-32.7 4.7L-30 -13.7L-17.8 -27.8Z" fill="none" stroke="#063171" stroke-width="2"></path></g><g transform="translate(668 316)"><path d="M0 -21L11.4 -17.7L19.1 -8.7L20.8 3L15.9 13.8L5.9 20.1L-5.9 20.1L-15.9 13.8L-20.8 3L-19.1 -8.7L-11.4 -17.7Z" fill="none" stroke="#063171" stroke-width="2"></path></g><g transform="translate(889 24)"><path d="M0 -33L17.8 -27.8L30 -13.7L32.7 4.7L24.9 21.6L9.3 31.7L-9.3 31.7L-24.9 21.6L-32.7 4.7L-30 -13.7L-17.8 -27.8Z" fill="none" stroke="#063171" stroke-width="2"></path></g><g transform="translate(534 627)"><path d="M0 -20L10.8 -16.8L18.2 -8.3L19.8 2.8L15.1 13.1L5.6 19.2L-5.6 19.2L-15.1 13.1L-19.8 2.8L-18.2 -8.3L-10.8 -16.8Z" fill="none" stroke="#063171" stroke-width="2"></path></g><g transform="translate(729 150)"><path d="M0 -14L7.6 -11.8L12.7 -5.8L13.9 2L10.6 9.2L3.9 13.4L-3.9 13.4L-10.6 9.2L-13.9 2L-12.7 -5.8L-7.6 -11.8Z" fill="none" stroke="#063171" stroke-width="2"></path></g><g transform="translate(74 519)"><path d="M0 -32L17.3 -26.9L29.1 -13.3L31.7 4.6L24.2 21L9 30.7L-9 30.7L-24.2 21L-31.7 4.6L-29.1 -13.3L-17.3 -26.9Z" fill="none" stroke="#063171" stroke-width="2"></path></g><g transform="translate(403 592)"><path d="M0 -24L13 -20.2L21.8 -10L23.8 3.4L18.1 15.7L6.8 23L-6.8 23L-18.1 15.7L-23.8 3.4L-21.8 -10L-13 -20.2Z" fill="none" stroke="#063171" stroke-width="2"></path></g><g transform="translate(117 198)"><path d="M0 -11L5.9 -9.3L10 -4.6L10.9 1.6L8.3 7.2L3.1 10.6L-3.1 10.6L-8.3 7.2L-10.9 1.6L-10 -4.6L-5.9 -9.3Z" fill="none" stroke="#063171" stroke-width="2"></path></g><g transform="translate(194 128)"><path d="M0 -13L7 -10.9L11.8 -5.4L12.9 1.9L9.8 8.5L3.7 12.5L-3.7 12.5L-9.8 8.5L-12.9 1.9L-11.8 -5.4L-7 -10.9Z" fill="none" stroke="#063171" stroke-width="2"></path></g><g transform="translate(896 493)"><path d="M0 -5L2.7 -4.2L4.5 -2.1L4.9 0.7L3.8 3.3L1.4 4.8L-1.4 4.8L-3.8 3.3L-4.9 0.7L-4.5 -2.1L-2.7 -4.2Z" fill="none" stroke="#063171" stroke-width="2"></path></g><g transform="translate(851 115)"><path d="M0 -34L18.4 -28.6L30.9 -14.1L33.7 4.8L25.7 22.3L9.6 32.6L-9.6 32.6L-25.7 22.3L-33.7 4.8L-30.9 -14.1L-18.4 -28.6Z" fill="none" stroke="#063171" stroke-width="2"></path></g><g transform="translate(197 21)"><path d="M0 -23L12.4 -19.3L20.9 -9.6L22.8 3.3L17.4 15.1L6.5 22.1L-6.5 22.1L-17.4 15.1L-22.8 3.3L-20.9 -9.6L-12.4 -19.3Z" fill="none" stroke="#063171" stroke-width="2"></path></g><g transform="translate(487 20)"><path d="M0 -7L3.8 -5.9L6.4 -2.9L6.9 1L5.3 4.6L2 6.7L-2 6.7L-5.3 4.6L-6.9 1L-6.4 -2.9L-3.8 -5.9Z" fill="none" stroke="#063171" stroke-width="2"></path></g><g transform="translate(381 199)"><path d="M0 -8L4.3 -6.7L7.3 -3.3L7.9 1.1L6 5.2L2.3 7.7L-2.3 7.7L-6 5.2L-7.9 1.1L-7.3 -3.3L-4.3 -6.7Z" fill="none" stroke="#063171" stroke-width="2"></path></g><g transform="translate(420 449)"><path d="M0 -26L14.1 -21.9L23.7 -10.8L25.7 3.7L19.6 17L7.3 24.9L-7.3 24.9L-19.6 17L-25.7 3.7L-23.7 -10.8L-14.1 -21.9Z" fill="none" stroke="#063171" stroke-width="2"></path></g><g transform="translate(158 647)"><path d="M0 -25L13.5 -21L22.7 -10.4L24.7 3.6L18.9 16.4L7 24L-7 24L-18.9 16.4L-24.7 3.6L-22.7 -10.4L-13.5 -21Z" fill="none" stroke="#063171" stroke-width="2"></path></g><g transform="translate(687 218)"><path d="M0 -8L4.3 -6.7L7.3 -3.3L7.9 1.1L6 5.2L2.3 7.7L-2.3 7.7L-6 5.2L-7.9 1.1L-7.3 -3.3L-4.3 -6.7Z" fill="none" stroke="#063171" stroke-width="2"></path></g><g transform="translate(251 346)"><path d="M0 -24L13 -20.2L21.8 -10L23.8 3.4L18.1 15.7L6.8 23L-6.8 23L-18.1 15.7L-23.8 3.4L-21.8 -10L-13 -20.2Z" fill="none" stroke="#063171" stroke-width="2"></path></g><g transform="translate(596 289)"><path d="M0 -33L17.8 -27.8L30 -13.7L32.7 4.7L24.9 21.6L9.3 31.7L-9.3 31.7L-24.9 21.6L-32.7 4.7L-30 -13.7L-17.8 -27.8Z" fill="none" stroke="#063171" stroke-width="2"></path></g><g transform="translate(553 141)"><path d="M0 -15L8.1 -12.6L13.6 -6.2L14.8 2.1L11.3 9.8L4.2 14.4L-4.2 14.4L-11.3 9.8L-14.8 2.1L-13.6 -6.2L-8.1 -12.6Z" fill="none" stroke="#063171" stroke-width="2"></path></g><g transform="translate(483 371)"><path d="M0 -5L2.7 -4.2L4.5 -2.1L4.9 0.7L3.8 3.3L1.4 4.8L-1.4 4.8L-3.8 3.3L-4.9 0.7L-4.5 -2.1L-2.7 -4.2Z" fill="none" stroke="#063171" stroke-width="2"></path></g></g></svg>